<svg width="140" height="24" viewBox="0 0 140 24" fill="none" xmlns="http://www.w3.org/2000/svg">
  <!-- Chevron icon -->
  <svg x="0" y="0" width="18" height="24" viewBox="155 194 302 404">
    <path d="M305,194 L457,299 L457,424 L307,320 L155,424 L155,297 L305,194z" fill="#1E6EFB"/>
    <path d="M327,383 L457,473 L457,598 L325,507z" fill="#1E6EFB"/>
    <path d="M286,381 L155,471 L155,598 L286,508z" fill="#1E6EFB"/>
  </svg>
  <!-- Wordmark "traffical" -->
  <svg x="24" y="0" width="114" height="24" viewBox="-36 -368 590 124">
    <path d="M63.219-338.24v-19.588H-35.7v19.588H1.234v91.197h25.051v-91.197zm41.535 3.372c-4.978 0-11.24 2.247-15.576 6.743l-6.423 11.881v-16.377H57.543v85.578h25.212v-35.805c0-24.244 8.51-32.272 28.422-30.987v-20.391c-1.927-.321-3.693-.642-6.423-.642m60.645 87.825h24.569c-1.285-9.473-1.606-15.253-1.606-21.676v-26.01c0-4.977-.161-9.794-.482-13.808-1.284-15.253-10.438-26.331-35.809-26.331-20.876 0-37.416 11.078-37.897 30.666h24.087c.642-8.509 4.978-13.326 12.846-13.326 7.547 0 11.401 4.174 11.883 9.312.321 2.89.321 5.138.321 7.386v1.445h-5.459c-30.19 0-46.729 10.918-46.729 29.542 0 16.217 13.007 25.047 27.459 25.047 7.868 0 15.094-1.766 21.197-5.619l3.853-9.152zm-16.861-15.093c-6.905 0-11.562-3.372-11.562-9.794 0-9.954 10.759-13.808 26.335-12.523v6.261c0 10.597-7.226 16.056-14.773 16.056m81.199-79.476c.803-7.385 8.19-10.275 18.627-8.349v-17.019c-2.89-.642-6.262-1.124-9.635-1.124-23.123 0-32.919 9.152-34.203 24.244-.161 2.89-.161 6.904-.161 9.634v2.248h-9.153v16.055h9.153v68.88h25.051v-68.88h17.503v-16.055h-17.503v-2.569c0-2.248 0-4.817.321-7.065m104.965 9.634h-54.116v-1.445c0-2.088 0-4.657.321-6.904.964-8.189 7.066-11.079 28.744-9.634v-17.019c-4.175-.642-7.547-1.124-13.328-1.124-29.065 0-39.182 9.634-40.627 25.529-.16 2.89-.16 6.743-.16 9.473v1.124h-9.154v16.055h9.154v68.88h25.05v-68.88h29.065v68.88h25.051zm51.652-2.89c-24.248 0-43.838 16.376-43.838 45.759 0 29.06 17.985 44.313 41.751 44.313 22.32 0 38.7-11.078 42.072-32.593h-24.89c-1.927 9.955-8.029 15.253-15.737 15.253-10.438 0-17.343-8.67-17.343-28.579 0-18.143 6.744-26.813 17.343-26.813 8.35 0 14.291 4.817 16.058 16.537h24.569c-1.285-19.106-16.058-33.877-39.985-33.877m97.418 87.825h24.569c-1.285-9.473-1.606-15.253-1.606-21.676v-26.01c0-4.977-.161-9.794-.482-13.808-1.284-15.253-10.438-26.331-35.809-26.331-20.876 0-37.416 11.078-37.897 30.666h24.087c.642-8.509 4.978-13.326 12.846-13.326 7.547 0 11.401 4.174 11.883 9.312.321 2.89.321 5.138.321 7.386v1.445h-5.459c-30.19 0-46.729 10.918-46.729 29.542 0 16.217 13.007 25.047 27.459 25.047 7.868 0 15.094-1.766 21.197-5.619l3.853-9.152zm-16.861-15.093c-6.905 0-11.562-3.372-11.562-9.794 0-9.954 10.759-13.808 26.335-12.523v6.261c0 10.597-7.226 16.056-14.773 16.056m77.506-102.917h-25.212v89.27c0 5.94 0 10.115.322 14.289.642 11.239 7.707 15.896 19.751 15.896 5.62 0 10.277-.322 15.095-.803v-17.18c-7.548.321-9.314-.963-9.796-4.817-.16-2.247-.16-4.174-.16-7.867z" fill="#FAFAFA"/>
  </svg>
</svg>
