<?xml version="1.0" encoding="UTF-8"?>
<svg xmlns="http://www.w3.org/2000/svg" xmlns:xlink="http://www.w3.org/1999/xlink" viewBox="0 0 2498.19 423.38">
  <defs>
    <style>
      .cls-1 {
        fill: url(#Unbenannter_Verlauf_456);
      }

      .cls-2 {
        fill: url(#Unbenannter_Verlauf_467);
      }

      .cls-3 {
        fill: url(#Unbenannter_Verlauf_445);
      }

      .cls-4 {
        fill: #1f6fff;
      }
    </style>
    <radialGradient id="Unbenannter_Verlauf_445" data-name="Unbenannter Verlauf 445" cx="187.08" cy="11.33" fx="187.08" fy="11.33" r="266.96" gradientUnits="userSpaceOnUse">
      <stop offset="0" stop-color="#4788ff"/>
      <stop offset=".46" stop-color="#1f6fff"/>
      <stop offset=".66" stop-color="#1767f7"/>
      <stop offset=".97" stop-color="#0251e2"/>
      <stop offset="1" stop-color="#004fe0"/>
    </radialGradient>
    <linearGradient id="Unbenannter_Verlauf_456" data-name="Unbenannter Verlauf 456" x1="291.63" y1="182.91" x2="291.63" y2="414.66" gradientUnits="userSpaceOnUse">
      <stop offset=".54" stop-color="#1f6fff"/>
      <stop offset=".7" stop-color="#1969f9"/>
      <stop offset=".91" stop-color="#0958e9"/>
      <stop offset="1" stop-color="#004fe0"/>
    </linearGradient>
    <linearGradient id="Unbenannter_Verlauf_467" data-name="Unbenannter Verlauf 467" x1="86.86" y1="416.53" x2="86.86" y2="182.87" gradientUnits="userSpaceOnUse">
      <stop offset="0" stop-color="#004fe0"/>
      <stop offset=".1" stop-color="#0958e9"/>
      <stop offset=".33" stop-color="#1969f9"/>
      <stop offset=".5" stop-color="#1f6fff"/>
    </linearGradient>
  </defs>
  <g id="Traffical_rund" data-name="Traffical rund">
    <g>
      <path class="cls-4" d="M695.57,106.4v305.4c0,2.13-1.73,3.86-3.86,3.86h-78.28c-2.13,0-3.86-1.73-3.86-3.86V106.4c0-2.13-1.73-3.86-3.86-3.86h-119.07c-2.13,0-3.86-1.73-3.86-3.86v-59.54c0-2.13,1.73-3.86,3.86-3.86h331.86c2.13,0,3.86,1.73,3.86,3.86v59.54c0,2.13-1.73,3.86-3.86,3.86h-119.07c-2.13,0-3.86,1.73-3.86,3.86Z"/>
      <path class="cls-4" d="M979.52,129.27v60.62c0,2.13-1.78,3.82-3.9,3.72-63.33-2.97-90.48,24.22-90.48,103.13v115.18c0,2.06-1.67,3.73-3.73,3.73h-76.25c-2.06,0-3.73-1.67-3.73-3.73V135.17c0-2.06,1.67-3.73,3.73-3.73h76.25c2.06,0,3.73,1.67,3.73,3.73v35.9c0,3.87,5.17,5.18,7.02,1.77l14.06-26c.17-.32.38-.61.64-.87,14.38-14.67,34.96-22.01,51.35-22.01,7.58,0,12.92.75,18.21,1.61,1.8.3,3.12,1.86,3.12,3.68Z"/>
      <path class="cls-4" d="M1159.14,386.75l-7.09,16.84c-.3.72-.82,1.33-1.48,1.74-20.06,12.37-43.72,18.04-69.43,18.04-48.03,0-91.26-29.35-91.26-83.26,0-61.91,54.97-98.2,155.3-98.2h14.41c2.06,0,3.74-1.67,3.74-3.74v-1.07c0-7.47,0-14.94-1.07-24.55-1.6-17.08-14.41-30.95-39.49-30.95s-39.39,14.76-42.38,40.97c-.22,1.89-1.8,3.33-3.71,3.33h-72.76c-2.15,0-3.86-1.82-3.74-3.96,3.69-62.64,57.83-97.97,125.79-97.97,84.32,0,114.74,36.82,119.01,87.52,1.07,13.34,1.6,29.35,1.6,45.9v86.46c0,20.37.97,38.81,4.77,67.82.29,2.24-1.45,4.23-3.7,4.23h-74.14c-1.86,0-3.44-1.37-3.7-3.21l-3.53-25.01c-.53-3.76-5.67-4.42-7.14-.93ZM1163.33,312.37v-17.35c0-1.97-1.54-3.6-3.5-3.73-49.87-3.41-84.02,9.56-84.02,41.89,0,21.35,15.48,32.55,38.43,32.55,25.08,0,49.1-18.15,49.1-53.37Z"/>
      <path class="cls-4" d="M1388.51,115.22v4.96c0,2.13,1.73,3.86,3.86,3.86h52.37c2.13,0,3.86,1.73,3.86,3.86v47.41c0,2.13-1.73,3.86-3.86,3.86h-52.37c-2.13,0-3.86,1.73-3.86,3.86v228.78c0,2.13-1.73,3.86-3.86,3.86h-78.28c-2.13,0-3.86-1.73-3.86-3.86v-228.78c0-2.13-1.73-3.86-3.86-3.86h-23.7c-2.13,0-3.86-1.73-3.86-3.86v-47.41c0-2.13,1.73-3.86,3.86-3.86h23.7c2.13,0,3.86-1.73,3.86-3.86v-3.86c0-9.37,0-23.15.55-33.08C1307.47,31.42,1341.1,0,1420.48,0,1430.88,0,1441.27,1.33,1450.47,3.2c1.8.37,3.09,1.95,3.09,3.78v50.75c0,2.36-2.11,4.16-4.45,3.81-33.47-5.01-56.86,5.11-59.5,29.41-1.1,7.72-1.1,16.54-1.1,24.26Z"/>
      <path class="cls-4" d="M1744.62,415.66h-78.28c-2.13,0-3.86-1.73-3.86-3.86v-228.78c0-2.13-1.73-3.86-3.86-3.86h-92.06c-2.13,0-3.86,1.73-3.86,3.86v228.78c0,2.13-1.73,3.86-3.86,3.86h-78.28c-2.13,0-3.86-1.73-3.86-3.86v-228.78c0-2.13-1.73-3.86-3.86-3.86h-23.7c-2.13,0-3.86-1.73-3.86-3.86v-47.41c0-2.13,1.73-3.86,3.86-3.86h23.7c2.13,0,3.86-1.73,3.86-3.86h0c0-9.37,0-22.6.55-32.52C1482.22,33.08,1516.95,0,1616.73,0,1635.03,0,1646.3,1.41,1659.19,3.36c1.89.29,3.29,1.91,3.29,3.82v51.01c0,2.22-1.88,3.98-4.1,3.85-71.1-4.32-91.33,5.75-94.58,33.34-1.1,7.72-1.1,16.54-1.1,23.7v1.1c0,2.13,1.73,3.86,3.86,3.86h178.06c2.13,0,3.86,1.73,3.86,3.86v283.9c0,2.13-1.73,3.86-3.86,3.86Z"/>
      <path class="cls-4" d="M2054.35,236.58h-74.42c-1.81,0-3.36-1.3-3.67-3.08-6.43-36.72-25.86-51.89-52.87-51.89-35.22,0-57.64,28.82-57.64,89.13,0,66.18,22.95,95,57.64,95,24.85,0,44.68-16.58,51.69-47.78.38-1.7,1.89-2.92,3.64-2.92h75.26c2.34,0,4.11,2.13,3.68,4.42-12.73,68.61-66.43,103.92-139.07,103.92-78.99,0-138.76-50.7-138.76-147.3s65.11-152.1,145.7-152.1,126.47,46.99,132.55,108.49c.22,2.2-1.51,4.11-3.72,4.11Z"/>
      <path class="cls-4" d="M2255.84,386.75l-7.09,16.84c-.3.72-.82,1.33-1.48,1.74-20.07,12.37-43.72,18.04-69.43,18.04-48.03,0-91.26-29.35-91.26-83.26,0-61.91,54.97-98.2,155.3-98.2h14.41c2.06,0,3.74-1.67,3.74-3.74v-1.07c0-7.47,0-14.94-1.07-24.55-1.6-17.08-14.41-30.95-39.49-30.95s-39.39,14.76-42.38,40.97c-.22,1.89-1.8,3.33-3.71,3.33h-72.76c-2.15,0-3.86-1.82-3.74-3.96,3.69-62.64,57.82-97.97,125.79-97.97,84.32,0,114.74,36.82,119.01,87.52,1.07,13.34,1.6,29.35,1.6,45.9v86.46c0,20.37.97,38.81,4.77,67.82.29,2.24-1.45,4.23-3.7,4.23h-74.14c-1.86,0-3.44-1.37-3.7-3.21l-3.53-25.01c-.53-3.76-5.67-4.42-7.14-.93ZM2260.02,312.37v-17.35c0-1.97-1.54-3.6-3.5-3.73-49.87-3.41-84.02,9.56-84.02,41.89,0,21.35,15.48,32.55,38.43,32.55,25.08,0,49.1-18.15,49.1-53.37Z"/>
      <path class="cls-4" d="M2464.01,312.64c0,12.93,0,19.71.54,27.56,0,.09.02.19.03.28,1.59,12.75,7.16,17.45,29.68,16.95,2.16-.05,3.93,1.74,3.93,3.96v52.81c0,2.04-1.51,3.75-3.49,3.94-15.32,1.5-30.4,2.48-48.33,2.48-41.35,0-65.6-16.4-67.81-55.97-1.1-14.7-1.1-29.4-1.1-50.32V3.96C2377.46,1.77,2379.19,0,2381.32,0h78.83C2462.28,0,2464.01,1.77,2464.01,3.96v308.68Z"/>
    </g>
  </g>
  <g id="Ebene_11" data-name="Ebene 11">
    <path class="cls-3" d="M375.21,128.73l-97.03-67.02h0S190.05.83,190.05.83c-1.6-1.11-3.72-1.11-5.33,0L2.04,126.27c-1.28.88-2.04,2.32-2.04,3.87v113.11c0,3.77,4.23,6.01,7.35,3.87l113.64-77.75h0s66.35-45.43,66.35-45.43c1.52-1.04,3.53-1.04,5.05.01l177.41,123c3.15,2.19,7.46-.07,7.46-3.91v-110.41c0-1.56-.77-3.02-2.05-3.91Z"/>
    <path class="cls-1" d="M206,187.63v110.1c0,1.55.76,2.99,2.03,3.87l161.84,112.21c3.13,2.17,7.4-.07,7.4-3.87v-110.51c0-1.55-.76-3-2.03-3.88l-161.84-111.79c-3.13-2.16-7.39.08-7.39,3.88Z"/>
    <path class="cls-2" d="M165.13,183.7L3.27,294.85c-1.28.88-2.04,2.33-2.04,3.87v113.1c0,3.78,4.23,6.01,7.35,3.88l161.86-110.75c1.28-.88,2.05-2.33,2.05-3.88v-113.49c0-3.78-4.24-6.02-7.36-3.87Z"/>
  </g>
</svg>